<svg width="20" height="20" viewBox="0 0 20 20" fill="none" xmlns="http://www.w3.org/2000/svg">
<path fill-rule="evenodd" clip-rule="evenodd" d="M6.01363 13.3357C5.8803 13.3357 5.74613 13.2932 5.6328 13.2066C5.35947 12.9957 5.3078 12.6032 5.51863 12.3299L8.0128 9.08822C8.11447 8.95572 8.2653 8.86989 8.4303 8.84906C8.59863 8.82739 8.76363 8.87406 8.89447 8.97822L11.2445 10.8241L13.3003 8.17156C13.512 7.89739 13.9036 7.84656 14.177 8.05989C14.4503 8.27156 14.5003 8.66406 14.2886 8.93656L11.847 12.0866C11.7453 12.2182 11.5953 12.3041 11.4303 12.3241C11.2636 12.3466 11.0986 12.2982 10.967 12.1957L8.61863 10.3507L6.50947 13.0916C6.38613 13.2516 6.20113 13.3357 6.01363 13.3357Z" fill="#BFBFBF"/>
<mask id="mask0_30_405" style="mask-type:luminance" maskUnits="userSpaceOnUse" x="14" y="1" width="5" height="6">
<path fill-rule="evenodd" clip-rule="evenodd" d="M14.4128 1.66675H18.8661V6.12083H14.4128V1.66675Z" fill="white"/>
</mask>
<g mask="url(#mask0_30_405)">
<path fill-rule="evenodd" clip-rule="evenodd" d="M16.6394 2.91669C16.1011 2.91669 15.6628 3.35419 15.6628 3.89335C15.6628 4.43169 16.1011 4.87085 16.6394 4.87085C17.1778 4.87085 17.6161 4.43169 17.6161 3.89335C17.6161 3.35419 17.1778 2.91669 16.6394 2.91669ZM16.6394 6.12085C15.4119 6.12085 14.4128 5.12169 14.4128 3.89335C14.4128 2.66502 15.4119 1.66669 16.6394 1.66669C17.8678 1.66669 18.8661 2.66502 18.8661 3.89335C18.8661 5.12169 17.8678 6.12085 16.6394 6.12085Z" fill="#BFBFBF"/>
</g>
<mask id="mask1_30_405" style="mask-type:luminance" maskUnits="userSpaceOnUse" x="1" y="2" width="18" height="17">
<path fill-rule="evenodd" clip-rule="evenodd" d="M1.66669 2.36841H18.2183V18.9192H1.66669V2.36841Z" fill="white"/>
</mask>
<g mask="url(#mask1_30_405)">
<path fill-rule="evenodd" clip-rule="evenodd" d="M13.5275 18.9192H6.35746C3.55163 18.9192 1.66663 16.9484 1.66663 14.0151V7.28008C1.66663 4.34257 3.55163 2.36841 6.35746 2.36841H12.4141C12.7591 2.36841 13.0391 2.64841 13.0391 2.99341C13.0391 3.33841 12.7591 3.61841 12.4141 3.61841H6.35746C4.26746 3.61841 2.91663 5.05507 2.91663 7.28008V14.0151C2.91663 16.2692 4.23496 17.6692 6.35746 17.6692H13.5275C15.6175 17.6692 16.9683 16.2351 16.9683 14.0151V8.14924C16.9683 7.80424 17.2483 7.52424 17.5933 7.52424C17.9383 7.52424 18.2183 7.80424 18.2183 8.14924V14.0151C18.2183 16.9484 16.3333 18.9192 13.5275 18.9192Z" fill="#BFBFBF"/>
</g>
</svg>
