<svg width="20" height="20" viewBox="0 0 20 20" fill="none" xmlns="http://www.w3.org/2000/svg">
<path fill-rule="evenodd" clip-rule="evenodd" d="M9.99597 14.5222C9.65097 14.5222 9.37097 14.2422 9.37097 13.8972V11.7831C9.37097 11.4381 9.65097 11.1581 9.99597 11.1581C10.341 11.1581 10.621 11.4381 10.621 11.7831V13.8972C10.621 14.2422 10.341 14.5222 9.99597 14.5222" fill="#BFBFBF"/>
<mask id="mask0_30_298" style="mask-type:luminance" maskUnits="userSpaceOnUse" x="1" y="3" width="18" height="10">
<path fill-rule="evenodd" clip-rule="evenodd" d="M1.66687 3.81665H18.325V12.4092H1.66687V3.81665Z" fill="white"/>
</mask>
<g mask="url(#mask0_30_298)">
<path fill-rule="evenodd" clip-rule="evenodd" d="M2.91687 9.49415C4.89687 10.57 7.39354 11.1592 9.99187 11.1592C12.5952 11.1592 15.0944 10.57 17.0752 9.49415V6.99248C17.0752 5.92998 16.216 5.06665 15.1585 5.06665H4.84187C3.7802 5.06665 2.91687 5.92665 2.91687 6.98415V9.49415ZM9.99187 12.4092C7.0377 12.4092 4.1902 11.6942 1.97604 10.3975C1.78437 10.2858 1.66687 10.0808 1.66687 9.85832V6.98415C1.66687 5.23748 3.09104 3.81665 4.84187 3.81665H15.1585C16.9052 3.81665 18.3252 5.24082 18.3252 6.99248V9.85832C18.3252 10.0808 18.2069 10.2858 18.016 10.3975C15.8019 11.6942 12.9519 12.4092 9.99187 12.4092V12.4092Z" fill="#BFBFBF"/>
</g>
<mask id="mask1_30_298" style="mask-type:luminance" maskUnits="userSpaceOnUse" x="6" y="1" width="8" height="5">
<path fill-rule="evenodd" clip-rule="evenodd" d="M6.45435 1.66681H13.5377V5.06339H6.45435V1.66681Z" fill="white"/>
</mask>
<g mask="url(#mask1_30_298)">
<path fill-rule="evenodd" clip-rule="evenodd" d="M12.9127 5.06342C12.5677 5.06342 12.2877 4.78341 12.2877 4.43841V4.13341C12.2877 3.46258 11.7418 2.91675 11.071 2.91675H8.92101C8.25018 2.91675 7.70435 3.46258 7.70435 4.13341V4.43841C7.70435 4.78341 7.42435 5.06342 7.07935 5.06342C6.73435 5.06342 6.45435 4.78341 6.45435 4.43841V4.13341C6.45435 2.77341 7.56101 1.66675 8.92101 1.66675H11.071C12.431 1.66675 13.5377 2.77341 13.5377 4.13341V4.43841C13.5377 4.78341 13.2577 5.06342 12.9127 5.06342" fill="#BFBFBF"/>
</g>
<path fill-rule="evenodd" clip-rule="evenodd" d="M14.8291 18.1168H5.16247C3.4333 18.1168 1.97747 16.766 1.84664 15.041L1.6883 12.9502C1.66247 12.606 1.9208 12.3052 2.26497 12.2793C2.6108 12.2668 2.90914 12.511 2.9358 12.856L3.0933 14.946C3.17497 16.0227 4.0833 16.8668 5.16247 16.8668H14.8291C15.9083 16.8668 16.8175 16.0227 16.8983 14.946L17.0566 12.856C17.0833 12.511 17.3891 12.266 17.7275 12.2793C18.0716 12.3052 18.3291 12.606 18.3033 12.9502L18.145 15.041C18.0141 16.766 16.5583 18.1168 14.8291 18.1168" fill="#BFBFBF"/>
</svg>
